<?xml version="1.0" encoding="utf-8"?>
<!-- Generator: Adobe Illustrator 23.0.5, SVG Export Plug-In . SVG Version: 6.00 Build 0)  -->
<svg version="1.0" id="Layer_1" xmlns="http://www.w3.org/2000/svg" xmlns:xlink="http://www.w3.org/1999/xlink" x="0px" y="0px"
	 viewBox="0 0 800 800" style="enable-background:new 0 0 800 800;" xml:space="preserve">
<g>
	<path d="M598.9199829,550.1229858c-0.9827881-3.4331055-2.0739136-6.8355103-3.057373-10.2678833
		c-1.5947266-5.5661011-3.0558472-11.1616821-3.4934082-16.9694214c-0.1176147-1.56427-0.2250366-3.1452637-0.5404053-4.6768799
		c-0.659729-3.2017212-1.4124146-6.3859863-2.2122192-9.5563049c-0.4204712-1.6661987-0.8991089-3.3388977-1.5670776-4.9172974
		c-1.3071899-3.0900879-2.7529297-6.1211853-4.1640015-9.1670837c-2.8151245-6.076416-5.6314697-12.1528015-8.475708-18.2164001
		c-1.6185303-3.449707-3.1289063-6.964325-4.9830322-10.2852173c-2.5140991-4.5018005-5.2999878-8.8523865-7.9887695-13.2561035
		c-4.2803955-7.010498-9.0280762-13.6862793-14.3068848-19.985199c-1.3245239-1.5809021-2.5189209-3.2709045-3.8956909-5.0704041
		c2.5252686-0.1116028,4.7874756-0.1673889,7.0421753-0.3251038c1.5953979-0.1114807,3.2006836-0.3161011,4.5704956-2.0713806
		c-1.4348145-0.2904053-2.5343018-0.6264038-3.6536865-0.7180176c-2.9971313-0.245575-5.8930054-0.6558838-8.3651123-2.6336975
		c-4.4309692-3.5452881-9.4464111-6.2705994-13.7305908-10.0852051
		c-6.3087158-5.6166992-11.4248047-12.7771912-15.6118164-20.0517883
		c-3.6875916-6.4075012-6.9168701-13.4945984-8.0281982-20.8475037c-1.2844849-8.4988098-0.5673828-17.1670837,0.0686035-25.688385
		c0.3016052-4.0453186,1.3937073-8.0272217,1.79599-12.0707092c0.4840088-4.8673096,1.8525085-9.4838867,3.2719116-14.1126099
		c0.3654175-1.1911926,0.4577332-2.479187,0.9181213-3.6254883c1.3875732-3.4555054,2.9310913-6.8489075,4.3446655-10.2947998
		c3.9462891-9.6184998,8.0023193-19.2702942,11.2235107-29.1581116c3.0629272-9.4011841,6.6520996-19.2635803,7.6917114-29.1394958
		c0.2791748-2.6496887,0.6461792-5.2896881,0.9395142-7.9380951c0.2592773-2.3426056,0.2166748-4.751297,0.7615967-7.0220032
		c1.1433716-4.7644043,0.5756836-9.6412964,0.0070801-14.4400024c-0.5718994-4.8280945-0.6309204-9.5898895-0.9456177-14.4250946
		c-0.2138672-3.2902069-0.4740601-6.5778046-0.7010498-9.8672943c-0.1138306-1.6483002-0.0917358-3.3132019-0.3119507-4.946106
		c-0.4586792-3.4055023-0.9613037-6.8092041-1.5889893-10.1871033c-0.6400757-3.4440918-1.3872681-6.8713989-2.2059937-10.2776031
		c-0.9282837-3.8632965-1.961792-7.7015991-2.9996948-11.5372925c-0.8356934-3.0895081-1.5073242-6.2521057-2.6715088-9.217804
		c-6.5994873-16.8123016-13.3728027-34.8087997-23.7756958-49.6919937
		c-11.2344055-16.0746994-24.48349-28.9384995-40.3735046-40.3242035c-2.401886-1.7206993-4.8938904-3.3644981-7.5095825-4.7275009
		c-9.5408936-4.9710999-19.4559021-9.8554001-30.0649109-11.9988976c-6.2120056-1.2556-12.5845947-2.5305023-18.9385986-2.6329994
		c-6.4978943-0.1044998-12.9502869,0.8815002-19.4433899,0.942997c-0.4501038,0.0045013-0.8901978,0.2937012-1.3482056,0.3719025
		c-2.0692139,0.3526001-4.133606,0.8634987-6.2171936,0.9679985c-3.3782959,0.1693001-6.7738953-0.0237007-10.1553955,0.1084023
		c-2.3448181,0.0916977-4.8291016,0.0454979-6.9869995,0.8077965c-5.6395264,1.9919014-11.0572205,4.5339012-16.3117065,7.4470024
		c-6.3724976,3.5318985-12.5118103,7.4053993-18.365387,11.7264977c-4.953125,3.6569023-9.7774048,7.4887009-14.2642212,11.7117004
		c-3.4766846,3.2734985-6.9400024,6.573204-10.2160034,10.0435028c-2.993988,3.1721954-5.7987976,6.531601-8.5523071,9.9179001
		c-1.7700806,2.1772003-3.343689,4.520401-4.9191895,6.847702c-1.6139832,2.3835983-3.2635803,4.7613983-4.6455078,7.2796936
		c-2.2848816,4.1646042-4.3331909,8.4421005-6.2430725,12.8118057c-2.0386963,4.6633987-3.6001282,9.4679031-5.0535278,14.2882919
		c-1.5735779,5.2205048-2.5293884,10.6315002-3.6564941,15.9802094c-0.660675,3.1342926-1.1113892,6.3123016-1.6900024,9.4653015
		c-0.7471924,4.0696869-1.5513916,8.1297913-2.2861023,12.2020874c-0.596283,3.3062134-1.1940918,6.6149139-1.6633911,9.9403076
		c-0.350708,2.4842987-0.4878845,4.998703-0.7391968,7.4976959c-0.140686,1.4028015-0.3858948,2.7985077-0.4653931,4.2037964
		c-0.098114,1.7284088-0.0103149,3.4671021-0.1116028,5.194809c-0.377594,6.4315948-0.9559021,12.8554993-1.1578064,19.292099
		c-0.1773071,5.641098-0.5615845,11.282196,0.4808044,16.9431915c0.6673889,3.6228027,1.4005127,7.218811,2.5039063,10.7045135
		c1.6972961,5.3621979,3.8083801,10.5845947,6.7266846,15.4255829c3.0979004,5.1378174,6.3124084,10.205719,9.3735962,15.3647156
		c1.589325,2.6784973,2.9882202,5.4718018,4.4185181,8.241394c1.6293945,3.1542053,2.4297791,6.5758057,3.0897827,10.0351868
		c0.8085022,4.2351074,1.6717224,8.4587097,1.6265259,12.8093262c-0.0131226,1.2475891,0.2506714,2.4976807,0.3644714,3.7484741
		c0.1419983,1.5649109,0.3853149,3.1331177,0.3659973,4.6974182c-0.0601807,4.9447937,0.2693176,9.8858032-0.6403809,14.8267822
		c-0.8197021,4.4538269-0.9487915,9.0332031-1.7198181,13.4985046c-0.8224792,4.7658997-1.9556885,9.4844971-3.1076965,14.1856995
		c-1.2597961,5.1416016-2.5711975,10.2781982-4.0940857,15.3460999c-2.4935913,8.3000183-5.4908142,16.5830994-8.8161926,24.5870056
		c-1.4008179,3.3716125-3.0055237,6.65979-4.5688171,9.9620972c-5.7628784,12.172699-12.0697937,23.8804932-18.6676941,35.6177979
		c-1.4485931,2.5779114-2.9227905,5.1411133-4.3491974,7.7304993c-4.1477051,7.5303955-8.2219086,15.0400085-11.8332062,22.8451233
		c-1.4059906,3.0387878-2.777298,6.0950012-4.0834961,9.1781006c-1.3694,3.2323914-2.5166931,6.5648804-3.9902954,9.7472839
		c-2.0259094,4.3754883-4.280899,8.6447144-6.4129028,12.9714966c-4.2505951,8.6270142-7.7839966,17.8046875-14.129303,25.1414795
		c-4.2028046,4.8602295-9.3415985,8.5072021-14.1283875,12.7189331c4.5393829-0.1218262,8.6510925-1.5289917,12.97789-2.8773193
		c0.0406952,0.7507935,0.1795044,1.368103,0.0877991,1.949585c-0.5003052,3.1722412-1.0587921,6.3361206-1.5937958,9.5031128
		c-0.1697998,1.0046387-0.2843018,2.0214233-0.5028992,3.0151367c-0.6219025,2.8214722-1.4972992,5.6045532-1.8845062,8.4561768
		c-0.7257996,5.3416748-2.8490906,10.2178955-4.6918945,15.1870728c-1.4281006,3.8511353-3.0881958,7.6157227-4.6226959,11.4283447
		c-6.6525116,16.5354004-13.9322052,32.5895996-22.4611053,48.2392578c-0.1952057,0.3577271-0.2371979,0.7994995-0.3504028,1.201416
		c0.123703,0.1224976,0.2478027,0.2443237,0.3715057,0.3660889c2.1983948-1.3648682,4.3973999-2.7284546,6.5943909-4.0953979
		c2.2237091-1.3827515,4.4450989-2.7688599,7.0708008-4.4049683c0,5.6987915-0.0009918,11.3972168,0.0003052,17.0957031
		c0,2.7573853-0.0491028,5.5153809,0.0153961,8.270874c0.0666962,2.8317261,0.212204,5.6629028,0.3827057,8.4901123
		c0.1656952,2.7459106,0.3538971,5.4916992,0.6295929,8.2280273c0.2833099,2.807373,0.703598,5.600647,1.0292969,8.4041748
		c0.6337128,5.449707,0.7975006,11.1793213,2.3602142,16.4674072c0.7458954,2.5246582,0.4225006,5.3486938,1.8392944,7.6779175
		c0.1820984,0.0018921,0.3638916,0.0037842,0.5458984,0.0056763c1.2239075-5.0704346,2.4477997-10.1409302,3.6719971-15.2108154
		c0.1692047-0.0205078,0.3388062-0.041687,0.5084076-0.0621948c0.2454987,0.6038818,0.5576935,1.1898804,0.7224884,1.8150024
		c0.3183136,1.2078247,0.4949036,2.4547729,0.8330994,3.656189c1.457901,5.1776123,2.9613037,10.3422852,4.432312,15.5159912
		c1.1904907,4.1864014,2.3553925,8.3933105,4.2635956,12.3156128c3.115799,6.4050293,6.7126923,12.3726807,10.6006927,18.3254395
		c0.3417053-1.9330444,0.5895081-3.3344116,0.8491058-4.8019409c0.4286041,0.1378174,0.6600952,0.1821289,0.8616943,0.2853394
		c0.2058105,0.1044922,0.4112091,0.2396851,0.5667114,0.4083862c3.365799,3.6535645,5.4904022,8.0021973,6.3731995,12.8162842
		c0.6907959,3.7677002,0.8636017,7.6419067,1.0937958,11.4790039c0.2510071,4.1920776-0.2230988,8.4432983,1.2754059,12.7745972
		c4.9227905-14.4967041,9.7838898-28.8125,14.7463989-43.4265137c0.6320953,0.7341309,1.0222015,1.1021118,1.3123016,1.5374146
		c2.2063904,3.3106079,4.3069916,6.6956787,6.609787,9.9370728c2.3875122,3.3607178,4.9798126,6.5752563,7.4561005,9.8735962
		c2.472702,3.2940063,4.7883911,6.7150269,7.4021912,9.8916016c2.6759338,3.251709,5.5891113,6.3130493,8.4904175,9.3704224
		c0.7453003,0.7854004,1.5559998,1.7611084,3.0776978,1.7001953c-0.6119995-8.7952881-2.2144165-17.3911743-3.0421143-26.0986938
		c1.7538147-0.3269043,2.1637268,0.9848022,2.925415,1.6329346c0.8808899,0.7494507,1.5167847,1.8501587,3.0638123,1.2630005
		c0.3538818-6.3764038-1.0488281-12.7593384-0.2478027-19.239624c1.1901855,0.9046021,2.2198792,1.6867676,3.2760925,2.4893799
		c0.9833984-1.3117065,0.8446045-2.5643921,0.7631836-3.8145142c-0.2507019-3.8453979-0.5724792-7.6880493-0.7102966-11.5379639
		c-0.130188-3.6376343,2.2332153-5.5474854,5.710907-4.6851807c4.0087891,0.9949951,7.9814148,2.1342773,11.9880066,3.1381836
		c3.7651978,0.9436646,7.552887,1.7971191,11.3331909,2.680481c3.5475159,0.8283081,7.1184998,1.7225952,10.7066956,2.354126
		c6.5502014,1.1514893,12.9305115,0.303894,19.2021179-1.7681274c7.2322998-2.3897705,14.7866821-4.0233154,21.7218933-7.2277832
		c3.3144836-1.5316162,6.5260925-3.293396,9.7351074-5.0422974c7.869873-4.286499,15.6012878-8.8110962,23.3448792-13.3195801
		c2.4900208-1.449646,4.8679199-1.1611328,7.2807312,0.2993774c4.5338745,2.7445068,9.132782,5.3807983,13.6817627,8.1010132
		c1.6678162,0.9968872,3.2241211,2.1848755,4.9134216,3.1400757c2.5119019,1.4207153,5.0102844,2.925415,7.6720886,4.0056152
		c8.3093872,3.371582,16.2277222,5.6105957,25.0690918,7.1123657c2.9966125,0.5090942,5.9998169,0.9970093,8.9720154,1.628418
		c12.2244873,2.5952148,24.7218933,5.9539795,37.0531921,1.6970215c3.3851013-1.1687012,6.8272095-2.1746216,10.2542114-3.2183228
		c0.4028931-0.1224976,0.8750916-0.0167236,1.466217-0.0167236c-0.1407166,0.4692993-0.1766357,0.7841187-0.3206177,1.0386353
		c-1.3440247,2.3759766-2.7747192,4.7064209-4.0418091,7.1220093c-0.9125977,1.741272-2.2625122,3.3427734-2.3070068,5.5559082
		c0.9295959,0.2871704,1.5143127,0.1851807,2.2426147-0.3853149c1.9610901-1.53479,4.0357056-2.9260254,6.0863037-4.3447876
		c0.8616028-0.5956421,1.7761841-1.1155396,2.8045044-1.7554321c0.333374,4.9154053-0.581543,10.2333984-2.2310181,14.3826294
		c-1.4415894,3.6253662-2.7410889,7.3067017-4.1315918,10.9519653c-1.9429016,5.0947876-3.9470215,10.1660156-5.8495178,15.2756348
		c-0.6105957,1.6392822-0.981781,3.3676758-1.5023804,5.1954956c1.480896-0.3660889,2.6605835-0.5046387,3.7032776-0.9572144
		c1.0617065-0.4608765,2.0384216-1.1668091,2.9655151-1.8790894c3.0247192-2.3226929,6.0131836-4.6921997,9.0090942-7.052124
		c4.5889893-3.6165161,9.1463013-7.2739868,13.7680054-10.8480835c3.1591187-2.4432983,6.2550049-4.9423218,8.871582-7.9812012
		c0.4594116-0.5339966,0.9088135-1.076416,1.3630371-1.6154785c0.1208496,0.0723877,0.2420044,0.1435547,0.3631592,0.2160034
		c-0.9824829,3.0997925-1.9646606,6.2000732-3.0241089,9.5440674c0.8193359-0.3153687,1.3829346-0.4301147,1.8312988-0.7218018
		c3.2245483-2.0964966,6.2870483-4.4345703,8.7174072-7.420166c8.4133301-10.3359375,16.5258179-21.0715332,22.3887329-33.0900269
		c2.1812744-4.4716797,4.2866821-8.9857178,6.2498169-13.5568237c1.072876-2.4970703,1.6168823-5.2210693,2.6829834-7.7220459
		c2.2127686-5.19104,3.3764038-10.6897583,4.4575806-16.1436157c1.0639038-5.368042,1.4714355-10.887207,1.4464111-16.4155273
		c-0.0256958-5.6552124,1.3181152-11.2183838,1.977417-16.8071899c0.5333862-4.5172119,0.9713135-9.0460205,1.420105-13.5728149
		c0.4560547-4.6043701,0.8817749-9.2113647,1.3081665-13.8189697c0.079834-0.8616943,0.0903931-1.729126,0.149292-2.5933228
		c0.3049316-4.47229,0.6549072-8.942688,0.9139404-13.4176636c0.3404541-5.8846436,0.5939941-11.7745361,0.9151611-17.6598511
		c0.4456177-8.1618652,0.9075317-16.3224487,1.3883057-24.4818726c0.1365967-2.3181763,0.3635254-4.6312866,0.5997925-7.5809937
		c2.4570313,2.5181885,4.1534424,4.9274902,6.3378906,7.0675049
		C598.9433594,551.3623047,599.085083,550.6987305,598.9199829,550.1229858z M315.2825928,197.6148987
		c1.3752136-3.5317993,2.5378113-6.5379944,3.7161865-9.5370026c0.5984192-1.5233002,1.3330994-3.0022888,1.8043213-4.5621033
		c0.3446045-1.1424866,0.3599854-2.3842926,0.5452881-3.7523956c-1.0513916,0.1018982-1.7207031,0.1672974-2.4249878,0.2353058
		c0.2038879-3.7998962,2.0227051-7.2644043,1.8450928-11.080307c-1.6082153-0.8602905-3.0465088-0.0140991-5.0746155,0.5263977
		c3.7408142-6.1577911,7.8025208-11.4295959,11.422821-17.3623962c-2.9199219,0.3648071-5.5211182,0.6898041-8.6593933,1.0814972
		c4.8400879-4.9306946,9.3934937-9.5697021,14.1158752-14.3806c-1.4427795-0.9173889-2.8067932-0.7141876-4.4751892-1.1083984
		c3.0686035-2.3079987,5.9089966-4.4447937,8.9559021-6.7368011c-2.7860107-0.8186951-5.2131958-1.532196-8.1965942-2.4085999
		c1.5976868-0.8320923,2.7125854-1.4571915,3.8639832-2.0046921c3.7225952-1.7695007,7.497406-3.4337997,11.1748047-5.2910995
		c2.2030945-1.1129074,2.2050171-1.616806,1.1309204-3.9004059c-0.9255066-1.967598-1.7339172-3.9902954-2.7388306-6.3251953
		c3.2026062,0,6.059021,0,8.7860107,0c0.6751099-1.104599,0.2185974-1.6919022-0.4054871-2.2458038
		c-2.4506226-2.1764984-4.8970947-4.3575974-7.5848999-6.7508011c0.6968994-0.0877991,1.2398987-0.214798,1.7832031-0.2159958
		c7.0889893-0.0129013,14.178009-0.0084,21.267395-0.0097046c0.6297913,0,1.2660828,0.0443039,1.8883057-0.0281982
		c1.2818909-0.1505966,1.9242859-0.8378983,1.6636963-2.0572968c-0.6820984-3.1927032-1.5066223-6.354599-2.2391052-9.5377045
		c-0.3282166-1.4271011-0.5718079-2.8733978-0.910614-4.6011963c0.7315063,0.2762985,1.1793213,0.3666992,1.5357056,0.5981979
		c0.5895081,0.382103,1.0773926,0.9308014,1.6838989,1.2758026c1.4232178,0.8097,2.510498,0.3018951,2.9422913-1.2770996
		c0.1183167-0.4328003,0.3033142-0.8469009,0.5809021-1.6072998c1.8992004,2.6092987,3.6184082,4.9710999,5.4880981,7.5401001
		c3.1482239-2.6504059,3.6470032-6.6124039,6.1614075-9.344101c1.2296143,1.9257965,2.9852905,4.6280975,5.5648193,2.6245956
		c1.9107971-1.4834976,3.678894-3.1503983,5.5374756-4.7030945c0.8764038-0.7321014,1.8204041-1.3834991,2.9770203-1.9207993
		c-0.3401184,5.1326981-2.6497192,9.7236938-3.1995239,14.8422928c0.7434082,0.6052017,1.5092163-0.0820999,2.1622314-0.5122986
		c2.4104919-1.5898972,4.7732849-3.2536011,7.123291-4.9325943c0.6887817-0.4924011,1.290802-0.9245071,2.2303772,0.0595932
		c-0.3477783,0.6648026-0.745575,1.3917999-1.1126709,2.133606c-0.6952209,1.405899-1.430603,2.7970963-2.0194092,4.2465973
		c-0.1615906,0.398201-0.0227966,1.1552963,0.2731018,1.4336014c0.2756958,0.2583008,1.0247803,0.2769012,1.4260864,0.0942001
		c2.260498-1.0283051,4.4666138-2.1764984,6.7181091-3.2266998c0.894989-0.4179993,1.8585815-0.6892014,3.0931091-1.1367035
		c-0.4039001,2.6254044-2.3026123,4.5525055-1.9362183,7.2208023c2.450592-0.7789001,4.7319946-1.7348022,7.1094971-2.1950989
		c4.8442078-0.9373016,10.002594-0.7405014,14.7983093,0.3487015c-2.247406,1.5463943-4.4951172,3.0920944-6.7424927,4.6383972
		c0.0355835,0.1853027,0.0715027,0.3712006,0.1070862,0.5565033c4.5740051-0.0718002,8.8008118,1.2206955,12.7404175,3.2714996
		c3.8638916,2.0124969,7.560791,4.3447952,11.6651917,6.7304001c-0.8125916,0.7198944-1.2619934,1.2128983-1.7995911,1.5751953
		c-1.4319153,0.9661026-1.628418,1.8951035-0.4061279,2.9234009c1.6069336,1.3521042,3.2651062,2.6516037,4.971405,3.8755035
		c4.308197,3.0906982,8.7177124,6.0442963,12.9625244,9.2190933c2.3008728,1.7207031,4.3687744,3.7586975,6.4875793,5.712204
		c0.3359985,0.3096008,0.5578003,0.9494934,0.5052185,1.3988953c-0.0323181,0.2763062-0.6670227,0.6379089-1.064209,0.6853027
		c-1.0905151,0.1307983-2.1987,0.1161041-3.2998047,0.1584015c-3.0856018,0.1170044-2.8510132,1.9967041-2.3387146,4.4739075
		c0.7716064,3.7318878,1.7637024,7.4217987,2.6311035,11.1317902c0.4266052,1.8246002,0.8010254,3.6607056,1.2181091,5.4878998
		c0.4673157,2.047699,0.9732056,4.0863953,1.4216003,6.1379089c0.0952148,0.4359894,0.0137939,0.90979,0.0137939,1.536087
		c-2.4931946-1.1250916-4.121582-3.5035858-7.0643005-4.2010956c0,1.4091034-0.1551819,2.5695038,0.0320129,3.6716003
		c0.8800049,5.1846008,2.1574097,10.3374023,3.2122803,15.4916077c0.137207,0.6692963,0.3058167,1.3315887,0.1196289,2.2669983
		c-0.5363159-0.491806-1.0537109-1.0059052-1.6127014-1.470108c-3.3242188-2.7583008-3.6372986,2.713501-3.9258118,4.7711029
		c-3.2587891-1.9828949-5.9309082-4.5357971-9.6480103-5.8724976c0,1.6078949-0.1612854,3.0778961,0.0320129,4.4998932
		c0.4628906,3.4029999,1.105011,6.7822113,1.6482849,10.1750031c0.1715088,1.0706024,0.2603149,2.1540985,0.4542236,3.8068085
		c-1.0927124-0.6956024-1.7556152-1.1475067-2.447113-1.5501099c-1.0731812-0.6257935-2.1018066-1.4533997-3.2651062-1.7700958
		c-1.7302856-0.4712067-3.1264038-0.4705963-2.9762878,2.1437988c0.1034851,1.8054047,0.0278931,3.6222992,0.0140991,5.4333954
		c-0.0047913,0.6135101-0.0661011,1.2264099-0.1257019,2.256012c-2.0028076-1.3014069-2.8082886-3.7626038-5.6438904-3.8716125
		c-1.203125,0.7853088-1.2714233,2.4439087-1.4640198,4.0460052c-0.5007019,4.1607971-1.0021057,8.3222046-1.5315857,12.7189026
		c-2.5372009-1.6618042-3.7604065-4.5870972-6.6123962-5.8000946c-1.8652954,2.3201904-0.5548096,5.1550903-1.3023987,7.8638
		c-0.8118896-0.6821136-1.4857178-1.281601-2.1948242-1.8361053c-0.8526917-0.6661072-1.6844788-1.3816071-2.6156921-1.9194946
		c-1.9288025-1.1130066-1.9533691-1.0706024-3.4208984,0.9263916c-1.3786926-1.3834991-2.7839966-2.6983948-4.0794067-4.1139984
		c-2.2700806-2.4810028-4.4629822-5.0325928-6.7071838-7.5381012c-1.7412109-1.9438019-3.5112915-1.4219055-4.4615173,0.1903992
		c-1.3442993,2.2817078-2.7226868,4.5442047-4.0449829,6.8392944c-1.7339172,3.0081024-3.427002,6.0391998-5.2282104,9.2210083
		c-1.0648804-1.1822052-1.9169006-2.1623993-2.8074036-3.1067963c-1.1081848-1.1751099-1.885498-1.2026978-2.8074036,0.1219025
		c-0.9324951,1.3398895-1.6440735,2.8329926-2.4682922,4.2491913c-0.2673035,0.4597015-0.5845947,0.889801-0.9788818,1.4848022
		c-0.3783264-0.3128967-0.6517029-0.5397949-0.9258118-0.766098c-1.1503906-0.9501038-1.6510925-0.9463043-2.7880859,0.0710907
		c-3.0892029,2.7645111-6.1655273,5.5437012-9.2637024,8.2979126c-0.448822,0.3993988-0.9891968,0.6955872-1.5975952,1.1147919
		c-1.2175293-1.5065918-2.3391113-2.8791962-3.4437256-4.2651978c-1.923584-2.4138031-4.3815918-3.3202972-6.7886963-2.3612061
		c-1.6665039,0.6641998-3.2660828,1.4957123-4.9072876,2.2246094c-0.410614,0.1826935-0.8677063,0.2608948-1.2809143,0.3802032
		c-2.1495972-3.7569122-1.4094849-8.3914032-4.1626892-12.0752106c-3.9194031,1.440506-5.1029053,5.501297-8.0212097,8.1894989
		c-0.5333862-1.7771912-1.0048828-3.4138947-1.5177917-5.0384979c-0.5061951-1.6020966-0.4855957-3.4530029-2.1083069-4.594101
		c-0.6192932,0.2295074-1.2391968,0.45961-1.9350891,0.7180023c-0.6792908-1.3462982-1.2845154-2.5901031-1.9284973-3.8126984
		c-0.8860168-1.6829071-2.2679138-1.8603973-3.4261169-0.3153992c-1.912384,2.5522919-3.6997986,5.1981049-5.5576782,7.7913971
		c-0.2013245,0.2801056-0.5202026,0.4763031-1.025116,0.925705c-0.1737976-0.7698975-0.3475037-1.2532959-0.3840027-1.7470093
		c-0.2327881-3.1355896-0.3558044-6.282196-0.6921082-9.4062958c-0.1115723-1.0365906-0.6506958-2.0681915-1.1651917-3.0092926
		c-0.501709-0.9174042-1.1430969-0.9533081-1.8742981-0.1455994c-0.6753845,0.7462921-1.2138977,1.6168976-1.8124084,2.4329987
		c-0.443573,0.6051941-0.8872986,1.2110901-1.4888916,2.0323029c-0.0827942-4.2056122-0.1921082-8.0740051-0.2125854-11.9425049
		c-0.0054016-1.0057983,0.2677002-2.0124054,0.4109802-3.0189056c0.0663147-0.4654999,0.1888123-0.9321899,0.1811218-1.3963013
		c-0.0305176-1.8457947-1.27771-2.5381927-2.8294983-1.5431976c-1.0543213,0.675705-2.0294189,1.4739075-3.0687256,2.1753082
		C316.7955933,196.9609985,316.3023071,197.1277008,315.2825928,197.6148987z M418.6690063,276.6771851
		c0.0477905-1.2943726,0.8058777-2.6534729,1.5341797-3.8061829c0.7937012-1.2553101,1.9368286-2.2625122,3.7854004-2.2798157
		c0.1523132,2.1394043,1.0180969,3.9497986,2.6404114,5.2660217c1.4433899,1.1719971,3.2544861,0.9853821,4.9835815,0.973877
		c2.975708-0.0204773,4.9904175-1.4943848,6.1732178-6.321991c1.5369873,0.2347107,2.313385,1.4046936,3.1160889,2.5125122
		c0.2717896,0.3750916,0.366394,0.882782,0.651001,1.2438049c0.7203064,0.9122925,1.4126892,1.9456787,3.0795898,1.1987915
		c-2.4675903,3.6087952-22.8809814,8.6773987-30.5954895,7.8656921c-0.0079956-0.151886-0.0682068-0.3249817-0.0159912-0.4526062
		c1.6940918-4.121582,1.9219971-3.3599854,5.0842896-2.1445007c0.1946106,0.0750122,0.4299011,0.0449219,0.7668152,0.073822
		C419.4152832,279.3641052,418.6196899,278.0049133,418.6690063,276.6771851z M431.4455872,268.2793884
		c0.8699951,0.6686096,1.7857971,1.1168213,1.126709,2.2361145c-0.1314087,0.2232056-0.9308167,0.3366089-1.1786194,0.1596985
		C430.3620911,269.9378967,430.8680115,269.1788025,431.4455872,268.2793884z M366.4763794,269.2749939
		c-0.502594-0.4134827-0.9853821-0.8110046-1.7543945-1.4437866c0.7097168-0.5436096,1.0678101-0.8174133,1.4783936-1.1321106
		c0.512207,0.3717957,1.000824,0.725708,1.5835266,1.1481934
		C367.3581848,268.3121033,367.0097961,268.6921997,366.4763794,269.2749939z M371.3081055,272.1214905
		c0.1993713-0.5012817,0.4679871-0.9756775,0.6977844-1.4488831c3.828125,1.1611023,6.0819092,4.1499023,6.6210022,8.8074951
		c1.1758118,0.5365906,2.4016113,0.1929932,3.6135864-0.0327148c2.2532043-0.4205017,3.5014038,0.4981995,4.0717163,3.3344116
		c-1.5140076-0.1929932-2.9721985-0.203186-4.3269043-0.5827942c-7.5993042-2.1307068-15.3700867-2.2810059-23.0018005-4.0722961
		c-1.9996033-0.4699097-3.8236084-1.6893005-6.0046082-2.7008972c0.9261169-1.2579041,1.6887207-2.2933044,2.6244202-3.5639038
		c1.5783997,1.1911011,2.96698,2.1958008,4.3087769,3.2599792
		C363.6891785,278.1170959,369.5350952,276.5835876,371.3081055,272.1214905z M351.7367859,258.8512878
		c-0.8815918,0.2584229-1.711792,0.5013123-2.65448,0.7783203c0-1.3502197,0-2.5580139,0-4.2941132
		C350.452301,256.5246887,351.5062866,257.2524109,351.7367859,258.8512878z M490.2301025,547.7567139
		c-0.4543152,1.0750732-0.7819214,2.2027588-1.2011108,3.2932739c-1.3963928,3.6306152-2.723114,7.2907104-4.2380981,10.8706055
		c-1.3101196,3.0964966-2.7214966,6.1629028-4.3008118,9.1293335c-2.34198,4.4005737-4.7537842,8.7728882-7.3559875,13.0220947
		c-2.4810791,4.0512085-5.2019958,7.9586792-7.8959045,11.8751831c-2.2572937,3.2817993-4.5440979,6.5501709-6.9703979,9.7075806
		c-2.7170105,3.5350952-5.7029114,6.8643188-8.3962097,10.4160156
		c-7.0751953,9.3322754-13.8247986,18.9401855-20.5784912,28.5061035c-0.5968933,0.8455811-1.1444092,1.3347778-2.0682068,0.5667725
		c-3.8873901-3.2318726-7.8733826-6.355957-11.6062012-9.7583008c-3.6004944-3.2817993-6.2812805-7.3175659-8.3375854-11.7456665
		c-2.4750061-5.3287964-4.3421936-10.8442993-5.2401123-16.6751099c-0.3563843-2.3131104-1.0926819-4.5825806-1.2840881-6.902771
		c-0.2516174-3.0523071-0.2241211-6.1373291-0.1504211-9.2037354c0.0581055-2.4246216,0.4072266-4.8408813,0.5334167-7.2661743
		c0.0292053-0.5559082-0.3240051-1.1322021-0.4830017-1.640625c-1.2098083-0.0084229-1.4544067,0.666687-1.6690979,1.4771118
		c-1.271698,4.7935181-2.3092957,9.6082153-1.6434937,14.6184082c0.3512878,2.6427002,0.7035828,5.2852783,1.0410767,7.9298706
		c0.7011108,5.4942017,1.1524048,11.0734253,2.348114,16.4898071c1.5136108,6.8585205,3.8895874,12.4628296,7.3746033,18.5484009
		c1.9126892,3.3408203,4.321991,6.3123779,7.0646973,9.0004883c2.6239929,2.5721436,5.3208008,5.0699463,8.0784912,7.6881104
		c-2.6944885,2.9401245-5.235199,5.6578369-7.7120972,8.4318237c-2.1807861,2.4432983-4.372406,4.8845825-6.4100952,7.4451904
		c-3.5104065,4.4110718-6.8588867,11.2711792-12.0979919,13.8400879c-1.2008057,0.588623-2.1264954,0.6104126-2.9930115-0.2019043
		c-1.2414856-1.164917-2.449585-2.3938599-3.4956055-3.7332153c-2.8830872-3.6907959-5.6920776-7.4400024-8.4961853-11.1916504
		c-2.1929016-2.9337158-4.3336182-5.9064941-6.5002136-8.859436c-0.6940002-0.9456787-1.3943787-1.8867798-2.0966797-2.8266602
		c-1.2361145-1.6534424-1.1470032-2.7324219,0.3618774-4.0280151c2.1242981-1.8240356,4.3534241-3.5383301,6.3641968-5.4794922
		c2.8731079-2.7728271,5.1801147-5.9880371,7.3096008-9.3954468c2.523407-4.038269,3.8453064-8.4856567,5.2452087-12.9240723
		c0.4648132-1.4744873,0.5612183-3.0925903,0.6443176-4.6544189c0.3047791-5.7410889,0.315979-11.4910889-0.5110168-17.1879883
		c-0.678894-4.6812744-1.7876892-9.3834839-2.6185913-14.0446777c-0.3968201-2.2278442-0.8135071-4.4608154-1.3959961-6.6450195
		c-0.3709106-1.3898926-1.0578003-2.6959229-1.6031189-4.0396118c-0.1489868,0.0244141-0.2980957,0.0487061-0.4474792,0.0731201
		c-0.1441956,0.5866089-0.3449097,1.1660767-0.4223938,1.7611084c-0.2831116,2.1707764-0.5748291,4.3421631-0.7709961,6.5219116
		c-0.2817078,3.1292725-0.3494263,6.2834473-0.7578125,9.394165c-0.3654175,2.7843018-0.1407166,5.6256104-1.0657959,8.3709106
		c-0.5161133,1.5308838-0.4936218,3.2420044-0.7219238,4.8710938c-1.7924805,12.7833252-8.3201904,25.1260986-19.6824646,31.809021
		c-1.5098267,0.8886108-2.6109314,0.7885742-3.7345276-0.4949341c-0.6605835-0.7545776-1.2500916-1.6008911-1.7239075-2.4849854
		c-1.8379822-3.430481-3.644989-6.8789673-5.4108887-10.3480225c-2.3310852-4.5793457-4.7160034-9.1363525-6.8931885-13.7894897
		c-3.7709045-8.0599976-7.5410156-16.1192627-12.3101196-23.6496582c-2.3332825-3.6845093-4.8765869-7.2368164-7.3638-10.8218994
		c-2.9002991-4.1802979-9.9238892-10.5682983-7.5534973-16.0808105c2.3103027-5.3718262,4.7637939-10.6885376,6.8753052-16.1379395
		c1.2536011-3.2355957,1.968811-6.6802979,2.9814148-10.2249756c1.4680786,0.9168091,2.0694885,2.3753052,2.7926941,3.6524048
		c2.3912964,4.22229,4.9309998,8.3344116,8.0871887,12.0368042c3.1166992,3.656189,6.8356934,6.6430664,10.6788025,9.477417
		c1.6018066,1.1815796,3.3071899,2.2232666,5.1657104,3.1535645c-3.4164124-6.7033691-7.4496155-13.0061035-10.9923096-19.5748901
		c0.1467896-0.1447754,0.2941895-0.2891235,0.4414063-0.4332886c1.3630066,0.8961792,2.7707825,1.7321777,4.0767822,2.7047729
		c1.3351135,0.9943237,2.5700989,2.123291,4.1530151,2.8970947c-2.7323914-4.3616943-5.7872009-8.645874-7.9250183-13.34198
		c-2.3518982-5.1663208-2.3040771-9.8585815-2.3040771-15.3967896c5.006012,2.8139038,9.8309937,5.5263672,14.6555786,8.2382202
		c0.1359253-0.1077271,0.2715149-0.2154541,0.4071045-0.3231201c-0.1340027-0.4417114-0.1582947-0.9692993-0.4243774-1.3071899
		c-0.6292114-0.7982178-1.4184265-1.4694214-2.0631104-2.2573242c-3.1769104-3.8825684-5.0588989-8.270874-6.1235046-13.2324219
		c-1.7742004-8.2702637-1.3353882-16.5084839-0.8964844-24.828064c0.7506714-14.230896,0.1274719-28.4810181-1.7003174-42.5924072
		c-0.9324036-7.2022095-2.8782043-14.1928101-4.5411987-21.2629089c-0.9263916-3.9394836-1.8406067-7.8829956-2.6871948-11.8404846
		c-0.6180115-2.8894958-1.1141968-5.8045959-1.6704102-8.7075195c-0.3060913-1.596283-0.6442871-3.1875916-0.9125977-4.7909851
		c-0.0355835-0.213501,0.2555237-0.4814148,0.5166931-0.9346924c0.9809265,1.3635864,1.8297119,2.5432739,3.0193176,4.1966858
		c0-1.8226929,0-3.1600037,0-4.737793c2.383606,0.6609802,3.4740906,2.3585815,4.3168945,3.9819031
		c1.3222961,2.5464783,2.2396851,5.3025818,3.3407898,7.9650879c0.196106,0.4743958,0.4519043,0.9244995,0.9320984,1.8951111
		c1.1710205-6.1994934,0.9181213-12.734314,0.3312073-18.9882202c-0.291687-3.106781-1.0021057-6.1783752-1.599884-9.2511902
		c-0.3719177-1.9136963-0.8588257-3.8061829-1.3424988-5.6961975c-0.9059143-3.538208-1.8233032-7.074585-2.7800903-10.5993958
		c-0.9380188-3.4555054-1.9734192-6.8847961-2.883728-10.3467102c-0.4968872-1.8894043-0.7930908-3.8299866-1.2324829-5.7353821
		c-1.0460205-4.5357971-2.1381226-9.0613098-3.1722107-13.5997009c-0.1491089-0.6546021-0.0820923-1.3585205-0.1292114-2.3362122
		c0.9354248,0.3199158,1.5652161,0.5360107,2.4580078,0.841095c-0.4580994-5.0922852-3.2526855-9.3946838-4.3447876-14.4497986
		c0.660675,0.1166992,1.1203003,0.1185913,1.5139771,0.2800903c5.618927,2.3029175,11.1898193,4.7301025,16.8652039,6.883606
		c1.6755066,0.6353149,3.5601196,1.2303162,5.4683228,0.752594c0.3862915-0.8872986-0.0103149-1.3750916-0.638916-1.8302917
		c-2.2720032-1.6456909-4.6546936-3.1702881-6.7533875-5.0153809c-2.508606-2.2054138-4.9387207-4.5499268-7.092804-7.096405
		c-2.6701965-3.1567993-5.1026001-6.5258179-7.4846191-9.9114075c-1.6049805-2.2817078-2.9544983-4.7435913-4.3982849-7.1375122
		c-0.440094-0.7288818-0.7583923-1.53479-1.2279968-2.2413025c-2.5891113-3.8965759-2.7600098-8.1085815-1.3803101-12.3815918
		c1.9579163-6.0641785,4.1130066-12.0655823,6.2059021-18.0861816c0.4093018-1.1777039,1.0119934-2.2939148,1.3594055-3.4869995
		c0.4917908-1.6874084,0.8287048-3.4196167,1.2789917-5.333313c0.5706177,0.1827087,1.1620178,0.2941895,1.6794128,0.5531921
		c1.469696,0.7366943,1.4549866,0.7585144,2.4162903-0.6333923c0.2240906-0.3237,0.4769897-0.627594,0.7062073-0.927002
		c0.9273987,0.5988159,1.6626892,1.0732117,2.4454956,1.5783997c-2.6528931,3.0054932-5.1585999,5.843689-7.649292,8.6651917
		c0.2313843,0.2487183,0.3103027,0.4077148,0.4310913,0.4526062c2.6292114,0.9718933,2.9259949,1.5776978,1.9870911,4.1094971
		c-0.1605835,0.4334106-0.3361816,0.8610229-0.4923706,1.2956238c-0.0195313,0.0544739,0.0371704,0.1359863,0.0756836,0.2589722
		c0.1916809,0.0443115,0.4475098,0.1956177,0.6243896,0.1307983c3.2382202-1.1872864,5.9523926,0.0757141,8.5729065,1.7983093
		c3.4898071,2.2933044,7.0780945,4.3659973,11.3016968,4.997406c3.6758118,0.5494995,7.3493042,0.5109863,11.031189,0.0173035
		c3.8982239-0.5217896,7.8016052-0.8372192,11.6655273,0.2718811c2.3111877,0.6635132,4.1896057,2.0541077,6.0112915,3.5543213
		c0.3570862,0.2935791,0.8494873,0.4230957,1.2792969,0.6289063c0.1323853-0.125,0.264801-0.25,0.3969116-0.3751221
		c-2.2798157-4.8562927-4.559906-9.712677-6.8400269-14.5690918c0.0821228-0.072998,0.1645203-0.1460876,0.246521-0.2192078
		c0.9645996,1.1014099,1.9293823,2.2035217,3.2686768,3.7325134c0-0.9725952,0.0936279-1.3983154-0.0143738-1.7650146
		c-1.0931091-3.7099915-3.8152161-6.1891785-6.6697998-8.4951782c-3.1026001-2.5068054-6.3430176-4.842926-9.5114136-7.2695007
		c-1.0462952-0.8008118-2.0553894-1.6502075-3.1661072-2.5451965c0.7077942-1.0623169,1.7294006-0.7591095,2.5321045-0.5462189
		c1.3540039,0.3603058,2.6628113,0.9174042,3.9569092,1.4707184c2.5772095,1.1006775,5.1091919,2.3110962,7.7088928,3.3528748
		c0.7510986,0.3014221,1.670105,0.1834106,2.6157227,0.2674255c0.8250732-2.821228-1.7207336-5.2776184-2.3528137-7.9407196
		c0.9859924,0.3237,1.9719849,0.6481018,3.4221802,1.1251068c-1.926178-4.2440948-3.7117004-8.1766968-5.5682983-12.2662964
		c2.7609253-0.3141022,2.5-3.6741028,5.020813-4.7121124c0.9029846,5.1622009,1.7732849,10.1378021,2.6435852,15.1141052
		c0.1843262,0.0070038,0.3686218,0.0146942,0.5533142,0.0218048c1.8781128-4.9031982,3.7565002-9.8063965,5.8352966-15.2333069
		c0.9487915,3.5511017,1.7810059,6.6649017,2.6234131,9.8191071c1.4194031-0.7577972,0.3089905-3.0093079,2.3313904-3.4857025
		c-0.0722046,0.6835022-0.1394958,1.283493-0.1978149,1.884903c-0.1362,1.4078979-0.2519836,2.8177032-0.4057922,4.2229919
		c-0.1868896,1.706604-0.4844055,3.4049072-0.5846863,5.1153107c-0.085907,1.459198-0.9004211,3.1125793,0.9250793,4.4524841
		c2.2368164-6.4212952,4.427124-12.7072906,6.6175232-18.993988c2.0419006,5.5923004,3.14328,11.3302002,4.2738953,17.0770874
		c0.9176941,0.0410156,1.0578003-0.5000916,1.2767944-1.1411896c0.5292053-1.5514069,1.1442871-3.077301,1.8063049-4.5774994
		c0.1705017-0.3858948,0.642395-0.639801,1.2526855-1.2154999c0.2673035,3.1022949,0.4940186,5.7321014,0.7318115,8.4901886
		c1.3619995-0.1218872,2.0550842-0.7731934,2.6701965-1.6168823c2.1915894-3.0049133,3.6902161-6.3399048,4.5498962-9.9339142
		c0.3029175-1.2661896,0.1786194-2.6349945,0.262207-4.1947937c2.1175842,1.1040039,1.5057068,3.9645996,3.9143066,4.8800964
		c0.5971985-2.6304016,0.1829834-5.2704926,0.4971924-8.3798981c0.8400879,1.0111084,1.4005127,1.5259094,1.7637024,2.1548004
		c0.8173828,1.4149017,1.4681091,2.9286041,2.3175049,4.321701c0.7033081,1.1533051,0.5535889,2.0522003-0.4042053,2.9111938
		c-1.6306152,1.4617004-3.264801,2.9196014-4.8842163,4.3935089c-2.2447815,2.0438995-4.4777832,4.1012115-6.9726868,6.3879852
		c1.6538086,0.6655273,2.8753967,0.696228,4.0957031,0.0769043c2.8522949-1.4462891,5.7243958-2.8566895,8.5331116-4.3838959
		c1.7908936-0.9738007,3.6244812-1.479599,5.6208801-1.016098c0.5257263,0.122406,1.2582092,0.5167084,1.3954163,0.9463043
		c0.6109009,1.9137115,1.4049988,3.8325043,0.8686829,6.2647858c-1.3302917,0-2.7173767,0.0359192-4.1015015-0.0108948
		c-1.15979-0.0397034-2.0441895-0.4332886-1.4620056-2.3753052c-1.2488708,0.8405151-2.0343018,1.4060059-2.8548889,1.9143982
		c-5.4346008,3.3687134-10.7432861,6.4565125-15.4050903,10.8866272c-0.4692993,0.4461975-0.7362976,1.1051941-1.3840942,2.113678
		c1.2484741-0.6405029,1.9937744-1.0231934,3.2580872-1.6713867c-2.1409912,5.4187012-4.0520935,10.2564087-6.167511,15.6102905
		c0.9691162-0.3551941,1.3739014-0.4609985,1.7406311-0.6437073c4.4957886-2.238678,9.2527771-2.7471008,14.1696777-2.1130981
		c1.3807068,0.1783142,2.734314,0.5859985,4.1169128,0.7245178c4.5562744,0.4552002,8.593689-1.2944031,12.5142822-3.2554932
		c0.9627075-0.4815063,1.7564087-1.5566101,2.3167114-2.5369263c1.5709839-2.7489929,4.0456848-3.5029907,6.9476013-3.5170898
		c0.1490784-0.0006104,0.2980957-0.0704956,0.7523804-0.1859131c-0.1445618-1.056488-0.2939758-2.1457825-0.4564819-3.3311768
		c2.2883911-1.7976074,5.3031921-1.292511,8.1596985-2.3766174c-3.1017151-2.1764832-6.032196-3.9773865-9.1130066-5.565979
		c-1.2242126-0.6315002-2.3634949-1.5073242-3.3716125-2.4529114c-0.8875732-0.8327942-1.2359924-1.9913025-0.8163757-3.2459106
		c0.4095764-1.2244873,0.8240967-2.4465027,1.6590881-3.6048889c0.2445984,0.8121948,0.4450073,1.6405945,0.7424011,2.4330139
		c0.8716125,2.321991,2.1910095,3.1028748,4.6983948,2.7066956c0.8607178-0.1365967,1.3437195,0.1340027,1.6758118,0.8847046
		c0.3464966,0.7840881,0.6734924,1.5854797,1.1161804,2.3143921c0.2651062,0.4360046,0.7036133,1.0148926,1.1203308,1.0648804
		c1.3504944,0.1635132,1.7504883,1.0411072,2.1351929,2.1393127c1.4617004,4.1742859,3.2349854,8.2215881,4.1052856,12.6156921
		c0.9864197,4.9826965,1.3085022,10.0032043,0.8553162,14.9929199c-0.2831116,3.1182861-0.7860107,6.3455811-2.4526062,9.2081909
		c-0.6953125,1.1943054-1.1167908,2.5662842-1.5415039,3.8966064c-1.2145996,3.8068848-2.889801,7.348999-5.0496826,10.7454834
		c-2.1147156,3.3242188-4.3973083,6.4579163-7.1326294,9.2755127c-3.0105896,3.1011047-6.3085022,5.8494873-9.9335938,8.2151794
		c-0.8493958,0.5545044-2.1409912,0.8763123-1.881897,2.6259155c3.5599976-0.1134949,6.7622986-1.870697,10.3640137-2.3182068
		c0.1673889,1.7271118-0.9674072,3.0368958-1.6383057,4.4505005c-0.6994019,1.4752197-1.6296997,2.8568115-2.5814209,4.1921997
		c-2.3473816,3.2926941-3.7571716,6.9758911-4.6671753,10.8712158c-0.2122192,0.907196-0.288208,1.8642883-0.2958984,2.7996826
		c-0.0333252,4.0953979,0.1994019,8.2068176-0.0776062,12.2842102c-0.6459045,9.5178833,6.7507935,16.9819031,12.1174927,23.9934082
		c1.6950989,2.2149963,1.6383972,4.7286987,1.0523987,7.1700745c-0.8538818,3.5587158-2.0453796,7.0361023-3.0661011,10.5558167
		c-1.4975891,5.1621094-3.0163879,10.3197937-4.4428101,15.5018921c-1.4514771,5.2718201-2.7887878,10.5750122-4.2014771,15.8576965
		c-0.9623108,3.5979004-2.0579834,7.1629944-2.9295044,10.7827148c-0.8582153,3.5651855-1.5092163,7.1809998-2.2510071,10.7743835
		c-0.6763,3.2767029-1.4078064,6.5438232-2.010498,9.8339233c-0.4515991,2.46698-0.8193054,4.9550781-1.0766907,7.4489746
		c-0.4013062,3.8851013-1.4290161,7.7202148-1.0065002,11.677124c0.0460815,0.4320984,0.0579834,0.8686829,0.2821045,1.348877
		c2.9768982-4.485199,4.5021057-9.7012024,7.3325806-14.2042847c0.2144165,0.0166016,0.428894,0.0332947,0.6437073,0.0505981
		c0.2199097,0.7604065,0.5224915,1.5072021,0.6462097,2.2835999c0.6141968,3.8414917-0.1029053,7.6567078-0.3026123,11.4815979
		c-0.2294922,4.394104-0.4353027,8.7914124-0.7972107,13.175293c-0.2496948,3.023407-0.7471924,6.0257263-0.9250793,9.1183777
		c2.2453918-1.5469971,3.2442932-4.0004883,4.7915955-6.0064697c1.5595093-2.0220032,2.8967896-4.2159119,4.5826111-6.7047119
		c0.3547974,1.8067017,0.6057739,3.0838013,0.9555969,4.8647156c1.7097778-2.6835938,1.8046875-5.4710999,2.7848816-7.922699
		c0.9985046-2.4971008,1.7041016-5.1115112,2.7058105-8.1907959c1.6177979,5.5968933,3.0253906,10.718689,4.5848999,15.7935791
		c3.1278992,10.1755981,7.9468079,19.9458008,13.5012817,29.0151367c2.7507019,4.4915771,5.8924255,8.7581787,9.278717,12.8092651
		c0.1625061-0.0429077,0.3250122-0.0858765,0.4876099-0.1289063c0-5.8302002,0-11.6604004,0-18.1264648
		c1.4407959,1.1077881,2.3893738,1.8374023,3.5032959,2.694458c0.4849854-1.201355,0.9538879-2.3636475,1.4482117-3.5888672
		c0.3407898,0.1154175,0.7378845,0.1243896,0.9020691,0.3250732
		C490.6759949,536.765625,492.4831848,542.4246216,490.2301025,547.7567139z"/>
	<path d="M435.979187,360.6234131c0.0606079-0.802002,0.0083008-1.6124268,0.0083008-2.9709167
		c-1.6193848,1.9816895-2.8125,3.5107117-4.0792847,4.9763184c-2.2971191,2.6579895-4.4387207,5.4954834-7.0115051,7.8592834
		c-7.218811,6.6329041-18.3433228,12.1057129-28.2451172,12.4335938c-2.9137878,0.0968018-5.794281,0.0288086-8.6362915-0.7468872
		c-3.7752075-1.030304-7.2146912-2.7579956-10.6440125-4.6152954c-5.5015869-2.9804993-10.2902832-6.7310181-14.0712891-11.7329102
		c-1.2276917-1.6239014-2.2649841-3.4389038-3.7004089-4.849884c-3.1102905-3.0562134-6.4219971-5.9084167-9.6508789-8.8441162
		c-0.1842957,0.0744019-0.3688965,0.1488037-0.5533142,0.223114c0.139801,3.8145752-0.2002869,7.6150818,0.4623108,11.4501953
		c1.3186951,7.6313782,4.3392944,14.7706909,7.797699,21.65448c1.6791077,3.342804,3.9020996,6.4117126,6.5646057,9.0473022
		c2.7669983,2.7388,5.8641968,5.0852966,9.2697754,7.0624084c7.091217,4.1162109,15.1036987,4.8855896,23.0993042,4.8551025
		c4.3152161-0.0166931,8.6199341-0.171814,12.7803955-1.5712891c2.1685181-0.7296143,4.3037109-1.4650269,5.9578247-3.1472168
		c1.8549805-1.8873901,3.7808838-3.7095032,5.5637817-5.6622925c5.1567078-5.6494141,9.1296082-12.0130005,11.9172058-19.1799011
		C434.855011,371.6029968,435.560791,366.1593933,435.979187,360.6234131z"/>
	<path d="M399.2342834,349.9099121c3.4526062,0.2493896,6.8781128-0.1923218,10.3168945-0.6737976
		c3.1245117-0.4372253,6.1296082-1.1835022,9.0640259-2.2438049c1.4946899-0.539917,2.7390747-1.5598145,4.1789856-3.0427246
		c-0.9161072,0-1.3648987-0.0461731-1.8015137,0.0077209c-3.3856812,0.4154053-6.5920715-0.1044922-9.8559875-1.1739197
		c-1.7554016-0.5750732-3.9454041-0.3660889-5.8074951,0.0628052c-2.4671936,0.5681152-4.7922058,1.7361145-7.2076111,2.5612183
		c-0.699707,0.2384949-1.5568848,0.3994751-2.2396851,0.2154846c-4.0398865-1.0848083-7.0755005-4.0996094-11.4689941-4.2844849
		c-4.4474182-0.1871948-8.6895142,1.1147766-13.0580139,1.4282837c-0.572876,0.0411072-1.1158752,0.4918213-2.0559998,0.9316101
		c5.9653931,2.0682068,11.7575073,3.9995117,18.0354919,4.9389954
		C391.2771912,349.2271118,395.256897,349.6227112,399.2342834,349.9099121z"/>
	<path d="M409.6290894,351.9518127c-2.7676086,0.8226013-5.5534973,1.6149902-8.2522888,2.6317749
		c-2.5079956,0.9450073-4.8355103,1.0584106-7.1204224-0.4866028c-0.4390869-0.2974854-0.9228821-0.5282898-1.3674927-0.7789917
		c-0.7218933,0.3815002-1.3375854,0.7065125-1.6690979,0.8815918c-1.5992126-0.6026917-2.9297791-1.4136963-4.3216858-1.537384
		c-1.2700195-0.1122131-2.3999023-0.4115906-3.5613098-0.8334045c-0.9465942-0.3442993-1.9342041-0.5885925-2.9176941-0.8154907
		c-1.3171082-0.3045959-2.5702209-0.6726074-3.5193176-1.7458191c-0.3060913-0.3461914-0.8087769-0.5185852-1.2215881-0.7705994
		c-0.1234131,0.1071167-0.2464905,0.2142029-0.3699951,0.321228c0.493103,0.9244995,0.9302979,1.8841858,1.4892883,2.7663879
		c3.6033936,5.6903992,9.2008057,7.3508911,15.6382141,8.111908c4.2901917,0.5076904,8.4653931,0.0018921,12.575592-1.0534058
		c4.3893127-1.1257019,8.4060974-3.2253113,12.319397-5.4500122c2.0184937-1.147583,3.4187012-3.0124817,4.520813-5.1192017
		c-0.3392029-0.125-0.5418091-0.2634888-0.6091003-0.2147827
		C417.7720947,350.368988,413.5686951,350.7799072,409.6290894,351.9518127z"/>
	<path d="M382.7591858,321.2788086c0.6138,0.4776917,1.1333923,1.0751953,1.7005005,1.613678
		c2.7127991,2.5753174,5.3561096,5.2295227,8.163208,7.6977234c2.3252869,2.0444946,4.280304,2.1066895,6.8287048,0.4308777
		c5.7590027-3.7869873,12.8670044-7.1091919,15.7114868-13.7312012c-0.3532104-0.0897827-0.6350098-0.2602844-0.7680054-0.1807861
		c-3.6725769,2.1900024-7.7938843,3.5882874-11.1546021,6.3322144c-0.5410767,0.4416809-1.1763916,0.7737732-1.787384,1.1225891
		c-2.0447998,1.1680908-4.164917,1.4328003-6.2209167,0.1423035c-2.7619019-1.7342224-5.5003967-3.5158081-8.1532898-5.4116211
		c-2.0201111-1.4430847-3.921875-3.0394897-7.1078796-3.6490784
		C381.0320129,317.7867126,380.9931946,319.906189,382.7591858,321.2788086z"/>
	<path d="M346.2825928,157.8318024c1.0950012-0.2378082,2.2485962-0.2532043,3.1644897-0.728302
		c4.0982056-2.1251984,8.6452026-2.548996,13.0230103-3.6062012c0.6019897-0.1454926,1.269104-0.0204926,2.1086121-0.0204926
		c-2.6106262,3.2420959-4.9996033,6.2141876-7.3948059,9.1819c-2.9984131,3.7151947-6.0065002,7.4220886-8.9989014,11.142395
		c-0.5013123,0.6231995-0.9504089,1.2937012-0.1105042,2.3399963c2.2784119-0.8943024,3.9440002-2.8522034,6.0871887-4.0305939
		c2.2218018-1.2212982,4.3387146-2.6330109,6.9862061-4.2595062c-0.2940063,1.4643097-0.4208984,2.3766022-0.6648865,3.2568054
		c-1.1822205,4.2633972-2.5505981,8.4756927-3.561615,12.7855988c-0.2398071,1.0231934-0.754303,2.0970001,0.0266113,3.2695923
		c2.4830017-0.3442993,3.555481-2.7509918,5.7568054-4.1024017c-0.1596985,0.7866058-0.2360229,1.2232056-0.3379211,1.654007
		c-0.1961975,0.8292999-2.0386963,6.0686951-0.6882019,6.4207001c1.691925,0.4398041,1.9893188,2.0803986,2.9151001,3.1567993
		c0.4706116,0.5475006,0.7940063,1.2303009,1.679718,0.9109955c1.2973022-0.467392,1.8267822,0.2904053,2.3450928,1.3014069
		c1.3486023,2.6311035,2.8009949,5.2095947,4.1534119,7.8394928c1.0446777,2.0310059,3.0195923,2.2810059,4.381012,0.4589996
		c0.7779846-1.0411987,1.474884-2.1438904,2.4441833-3.5645905c0.7526855,1.2680969,1.4697876,2.2619019,1.9515991,3.3593903
		c0.3544922,0.8078003,0.803894,1.3726044,1.6510925,1.4746094c0.9812012,0.1185913,1.2572021-0.6668091,1.6376953-1.3816071
		c0.8867188-1.6661987,1.8390198-1.7585907,2.9385071-0.2448883c0.5895081,0.8109894,1.1334839,1.4571991,2.3428955,1.1859894
		c0.5921021-1.8059998,1.1885986-3.6240997,1.9070129-5.8148041c2.227478,2.0541077,4.1062927,4.2159119,6.8671875,5.0801086
		c1.1484985-2.9369049,1.1484985-2.9369049,2.0147095-3.628006c1.0958862,0.5238037,2.2533875,1.5643005,3.137207,1.3688049
		c0.9827881-0.2180023,1.7165833-1.5617981,2.6643982-2.5220947c0.5213013,0.3468018,1.072876,0.7583923,1.664978,1.0994873
		c1.1053162,0.63591,1.7290039,0.4725037,2.2496033-0.6513977c0.7552185-1.6302948,1.3367004-3.279892,1.2755127-5.1589966
		c-0.0942078-2.9080048-0.0160217-5.8237915,0.0749817-8.7337036c0.0140991-0.4545898,0.4815063-0.8956909,0.739502-1.3430939
		c0.415802,0.2590027,0.9373169,0.4308014,1.230011,0.7897949c1.7793884,2.1829987,3.4715881,4.4371033,5.2723999,6.6014099
		c0.5466003,0.657196,1.3450928,1.1046906,2.4602966,1.9919891c0.2462158-4.3453979-1.7623901-7.7901001-1.6098022-11.6809998
		c2.4155884,0.8476105,4.3507996,2.098999,5.9855957,3.7978973c1.4541016,1.5105133,3.1674194,2.2529144,5.2693176,2.0868073
		c2.092804-0.1660004,2.95578-1.0424042,2.8794861-3.1036072c-0.0403748-1.091095-0.2092896-2.1809998-0.376709-3.2624969
		c-0.369873-2.3919983-0.7814941-4.7769012-1.1551819-7.1676025c-0.0317993-0.2038879,0.0906982-0.4307861,0.1377869-0.6320953
		c0.7277222-0.128891,1.3999023-0.2474976,2.0477295-0.3621979c1.2007751-3.628006-2.3381348-5.2993927-3.1427307-8.1125946
		c0.9267273-0.1513062,1.7332153-0.2833099,2.8709106-0.4699097c-0.4971924-0.7263947-0.8276978-1.2090912-1.1578979-1.6918945
		c-0.3282166-0.4795074-0.6557922-0.9591064-1.3261108-1.9393005c4.0744934-0.1647949,7.6115112-0.5827942,11.441803-0.3180084
		c-0.7398071-1.2571869-1.3873901-2.2906952-1.9665833-3.3612976c-0.6222229-1.1488953-1.605011-1.834198-2.6647034-2.5592957
		c-3.0543213-2.0886993-6.0014038-4.3338928-8.9906006-6.5180969c0.0509949-0.1109009,0.1019897-0.2225037,0.1532898-0.3339996
		c4.34729,0.8334045,8.6949158,1.6667938,13.4537964,2.5784912c-4.405304-6.3040009-9.9797058-10.0550995-16.7763977-12.3136902
		c0.8475952-0.214798,1.6950989-0.4289093,2.7456055-0.6950073c-0.9273987-1.7481995-1.9862061-2.8156891-3.243103-3.7901917
		c-2.3377991-1.8130035-4.987793-3.2478027-6.7784119-5.7404022c-1.3904724-1.9355011-1.5478821-2.2157059-0.2489929-4.1396027
		c0.574707-0.8507996,1.1815186-1.584198,0.8969116-3.0189972c-1.9060059,0.4307938-3.7369995,0.7391968-5.4988098,1.2751999
		c-1.4033813,0.4268951-2.7948914,1.0051956-4.0639038,1.737999c-3.1383057,1.8124008-5.7718811,4.2722931-8.3394775,6.8059998
		c-0.9607239,0.9481964-2.0221252,1.7937927-3.462616,3.0599976c0-2.1683044-0.0003967-3.7164917,0-5.2653961
		c0.0009155-6.4585037,0.009613-12.9169998-0.0068054-19.3755035c-0.0021973-0.8006973,0.3049011-1.8002014-1.1987915-2.1764984
		c-1.9067078,3.0727997-3.2854004,6.4994965-5.0946045,9.9832001c-0.4179993-0.552597-0.7528992-0.8597031-0.9199829-1.2405014
		c-0.5314026-1.2123032-0.9703064-2.4656982-1.5066223-3.6753998c-0.2525024-0.5699997-0.6000061-1.1752014-1.4920959-0.6424026
		c0,2.2310028,0.0281982,4.5005035-0.0079956,6.7681046c-0.0358887,2.2425995,0.1699219,4.5030975-0.2221985,7.2476959
		c-2.649292-3.0298996-4.9653015-5.678299-7.2810059-8.327301c-0.2342834,0.085907-0.4685974,0.1724014-0.7030029,0.2584
		c0.4026184,3.4549026,1.9772034,6.6912003,2.6830139,10.2794037c-0.5541992-0.0717926-0.8718872-0.0467987-1.1315002-0.1571045
		c-4.5213928-1.9232941-9.1681213-3.4644928-13.9375916-4.6402969c-2.068512-0.5095978-3.852417,0.1154022-5.6557922,1.170105
		c1.1894836,1.8482971,2.2870789,3.370903,4.0773926,4.4190903c1.7023926,0.9963074,3.1637878,2.4048004,4.8496094,3.7248077
		c-1.3101196,1.3880005-3.1507263,0.4365997-4.6118164,1.1085052c-1.5046082,0.6923981-3.4609985-0.1039124-5.1291199,1.3802948
		c1.6260986,2.3547058,4.253418,3.593399,6.2443237,5.8108978c-4.9057007,0.4506989-9.765625,1.4938049-14.2415161,3.6004944
		c-3.1333923,1.4752045-8.0675964,4.0072021-9.2539978,7.6137085c0.9848022,0.0988007,1.9554138,0.1961975,2.9767151,0.2982025
		C346.7511902,154.6244049,345.6583862,155.9483032,346.2825928,157.8318024z M380.5424805,179.8370972
		c3.6364136-1.4994965,6.0213013-4.3293915,8.0985107-7.4989929c0.127594-0.1949005,0.1585999-0.4642029,0.3086853-0.6327972
		c1.6027222-1.7976074,2.2166138-3.7466125,0.8946228-5.9039001c0.6763916-1.2726135,2.550293-1.5207062,2.4544983-3.114502
		c-0.0733948-1.2187042-0.7709045-2.4394073-0.6795959-3.6197052c0.2032776-2.6271973-0.7703247-4.8659058-1.7130127-7.1797028
		c-0.2721863-0.6687012-0.1943054-1.5385895-0.0874939-2.2893982c0.1723938-1.2097015,0.5023193-2.3970947,0.7561951-3.5522919
		c0.6520081,0.4621887,1.4117126,1.0006866,2.3999023,1.7007904c1.334198-0.9866028,2.6817932-1.9828949,4.2428894-3.1369019
		c-0.6199951,1.847702-1.6268005,3.8758087-1.9245911,5.798111c-0.1795044,1.1616974,0.4833984,1.7861938,1.6492004,1.5431976
		c1.5916138-0.3321075,3.1651001-0.7514038,4.7460938-1.1329041c0.171814,0.1596985,0.3439941,0.3193054,0.5158081,0.479599
		c-0.8215942,2.1457977-1.635498,4.2947083-2.4682922,6.4367065c-1.1315002,2.9095917-2.5509033,5.1118011,0.1224976,7.6104889
		c0.9022827,0.8431091,1.8017883,1.6893005,2.6319885,2.4676056c-0.0997009,0.3468933-0.0942078,0.5482025-0.1888123,0.6231995
		c-2.2392883,1.7823029-2.2950745,2.2111969-0.7157898,4.5928955c0.4055176,0.6121979,0.6856995,1.3065033,1.2159119,2.3381042
		c-1.2283936-0.1493988-1.9909973-0.1967926-2.735321-0.3404999c-2.1867981-0.4223938-2.5665894-0.1723938-2.8977966,2.0606079
		c-0.1130981,0.7628937-0.1832886,1.532196-0.3086853,2.600296c-0.6577148-0.604599-1.1298828-1.0380096-1.7149048-1.5752106
		c-1.6937866,1.2367096-1.2732849,3.2446136-2.0368042,5.1782074c-1.0187073-2.1605072-1.9284973-4.0903015-2.8964844-6.142395
		c-1.971405,1.1936951-1.3611145,3.7240906-2.9721985,4.899292c-0.3311157-0.6302032-0.512207-1.5419006-1.013916-1.7809906
		c-0.5808105-0.2770081-1.4797058-0.0866089-2.1777954,0.1166992c-2.7972107,0.8141937-2.788208,0.8450012-4.7282104,0.5224915
		C379.8122864,180.4640961,380.1200867,180.0115051,380.5424805,179.8370972z"/>
</g>
</svg>
